<?xml version="1.0" standalone="no"?><!DOCTYPE svg PUBLIC "-//W3C//DTD SVG 1.1//EN" "http://www.w3.org/Graphics/SVG/1.1/DTD/svg11.dtd"><svg viewBox="0 0 120 40" width="100px" height="40px" version="1.1" xmlns="http://www.w3.org/2000/svg" xmlns:xlink="http://www.w3.org/1999/xlink"><defs xmlns="http://www.w3.org/1999/xhtml"><style type="text/css"><![CDATA[
body { min-width: 100%; text-size-adjust: 100%; margin: 0px; padding: 0px; width: 100% !important; }
.ExternalClass { width: 100%; }
.ExternalClass { line-height: 100%; }
#backgroundTable { margin: 0px; padding: 0px; width: 100% !important; line-height: 100% !important; }
img { outline: none; text-decoration: none; width: auto; max-width: 100%; float: left; clear: both; display: block; }
body { color: rgb(34, 34, 34); font-family: Helvetica, Arial, sans-serif; font-weight: normal; padding: 0px; margin: 0px; text-align: left; line-height: 1.3; }
body { font-size: 14px; line-height: 19px; }
a:hover { color: rgb(39, 149, 182) !important; }
a:active { color: rgb(39, 149, 182) !important; }
a:visited { color: rgb(43, 166, 203) !important; }
h1 a:active { color: rgb(43, 166, 203) !important; }
h2 a:active { color: rgb(43, 166, 203) !important; }
h3 a:active { color: rgb(43, 166, 203) !important; }
h4 a:active { color: rgb(43, 166, 203) !important; }
h5 a:active { color: rgb(43, 166, 203) !important; }
h6 a:active { color: rgb(43, 166, 203) !important; }
h1 a:visited { color: rgb(43, 166, 203) !important; }
h2 a:visited { color: rgb(43, 166, 203) !important; }
h3 a:visited { color: rgb(43, 166, 203) !important; }
h4 a:visited { color: rgb(43, 166, 203) !important; }
h5 a:visited { color: rgb(43, 166, 203) !important; }
h6 a:visited { color: rgb(43, 166, 203) !important; }
table.button:hover td { background: rgb(39, 149, 182) !important; }
table.button:visited td { background: rgb(39, 149, 182) !important; }
table.button:active td { background: rgb(39, 149, 182) !important; }
table.button:hover td a { color: rgb(255, 255, 255) !important; }
table.button:visited td a { color: rgb(255, 255, 255) !important; }
table.button:active td a { color: rgb(255, 255, 255) !important; }
table.button:hover td { background: rgb(39, 149, 182) !important; }
table.tiny-button:hover td { background: rgb(39, 149, 182) !important; }
table.small-button:hover td { background: rgb(39, 149, 182) !important; }
table.medium-button:hover td { background: rgb(39, 149, 182) !important; }
table.large-button:hover td { background: rgb(39, 149, 182) !important; }
table.button:hover td a { color: rgb(255, 255, 255) !important; }
table.button:active td a { color: rgb(255, 255, 255) !important; }
table.button td a:visited { color: rgb(255, 255, 255) !important; }
table.tiny-button:hover td a { color: rgb(255, 255, 255) !important; }
table.tiny-button:active td a { color: rgb(255, 255, 255) !important; }
table.tiny-button td a:visited { color: rgb(255, 255, 255) !important; }
table.small-button:hover td a { color: rgb(255, 255, 255) !important; }
table.small-button:active td a { color: rgb(255, 255, 255) !important; }
table.small-button td a:visited { color: rgb(255, 255, 255) !important; }
table.medium-button:hover td a { color: rgb(255, 255, 255) !important; }
table.medium-button:active td a { color: rgb(255, 255, 255) !important; }
table.medium-button td a:visited { color: rgb(255, 255, 255) !important; }
table.large-button:hover td a { color: rgb(255, 255, 255) !important; }
table.large-button:active td a { color: rgb(255, 255, 255) !important; }
table.large-button td a:visited { color: rgb(255, 255, 255) !important; }
table.secondary:hover td { color: rgb(85, 85, 85); background: rgb(208, 208, 208) !important; }
table.secondary:hover td a { color: rgb(85, 85, 85) !important; }
table.secondary td a:visited { color: rgb(85, 85, 85) !important; }
table.secondary:active td a { color: rgb(85, 85, 85) !important; }
table.success:hover td { background: rgb(69, 122, 26) !important; }
table.alert:hover td { background: rgb(151, 11, 14) !important; }
body.outlook p { display: inline !important; }]]></style></defs><g fill="none" fill-rule="evenodd"><rect fill="#161616" width="120" height="40" rx="20"/><path d="M38.664 15V9.768h1.4c1.6 0 2.544.864 2.544 2.592 0 1.736-.944 2.64-2.496 2.64h-1.448zm.928-.752H40c1.056 0 1.656-.6 1.656-1.888 0-1.28-.6-1.84-1.656-1.84h-.408v3.728zm5.667.848c-.976 0-1.864-.752-1.864-2.056 0-1.312.888-2.064 1.864-2.064.984 0 1.872.752 1.872 2.064 0 1.304-.888 2.056-1.872 2.056zm0-.752c.576 0 .928-.52.928-1.304 0-.792-.352-1.312-.928-1.312-.576 0-.92.52-.92 1.312 0 .784.344 1.304.92 1.304zm3.45.656h1.056l.448-1.824c.088-.368.16-.736.232-1.152h.032c.088.416.152.776.24 1.144L51.173 15h1.096l1-3.928h-.864l-.472 2.04c-.072.376-.136.744-.208 1.128h-.032c-.088-.384-.168-.752-.264-1.128l-.52-2.04h-.84l-.512 2.04c-.096.368-.176.744-.248 1.128h-.032c-.072-.384-.128-.752-.208-1.128l-.472-2.04h-.928L48.71 15zm5.403 0h.92v-2.744c.328-.32.552-.488.896-.488.432 0 .616.24.616.888V15h.92v-2.464c0-.992-.368-1.56-1.208-1.56-.536 0-.936.28-1.288.624h-.032l-.064-.528h-.76V15zm5.443.096c.216 0 .376-.032.488-.08l-.12-.688c-.072.016-.104.016-.144.016-.096 0-.2-.08-.2-.304V9.352h-.92v4.64c0 .68.24 1.104.896 1.104zm2.946 0c-.976 0-1.864-.752-1.864-2.056 0-1.312.888-2.064 1.864-2.064.984 0 1.872.752 1.872 2.064 0 1.304-.888 2.056-1.872 2.056zm0-.752c.576 0 .928-.52.928-1.304 0-.792-.352-1.312-.928-1.312-.576 0-.92.52-.92 1.312 0 .784.344 1.304.92 1.304zm3.707.752c-.688 0-1.16-.464-1.16-1.152 0-.84.696-1.28 2.312-1.456-.016-.416-.184-.768-.72-.768-.384 0-.752.176-1.104.384l-.336-.616c.432-.272.992-.512 1.616-.512.976 0 1.464.6 1.464 1.696V15h-.76l-.064-.432h-.032c-.352.296-.752.528-1.216.528zm.296-.72c.32 0 .56-.16.856-.432v-.88c-1.072.136-1.424.416-1.424.808 0 .352.24.504.568.504zm4.323.72c-.984 0-1.616-.76-1.616-2.056 0-1.28.808-2.064 1.664-2.064.448 0 .728.168 1.032.432l-.032-.632V9.352h.92V15h-.76l-.064-.424h-.032c-.288.288-.688.52-1.112.52zm.224-.76c.304 0 .56-.136.824-.44v-1.832c-.272-.24-.536-.328-.8-.328-.504 0-.912.472-.912 1.296 0 .848.32 1.304.888 1.304zm6.253.76c-.976 0-1.864-.752-1.864-2.056 0-1.312.888-2.064 1.864-2.064.984 0 1.872.752 1.872 2.064 0 1.304-.888 2.056-1.872 2.056zm0-.752c.576 0 .928-.52.928-1.304 0-.792-.352-1.312-.928-1.312-.576 0-.92.52-.92 1.312 0 .784.344 1.304.92 1.304zm2.85.656h.92v-2.744c.329-.32.553-.488.897-.488.432 0 .616.24.616.888V15h.92v-2.464c0-.992-.368-1.56-1.208-1.56-.536 0-.936.28-1.288.624h-.032l-.064-.528h-.76V15zm7.598.096c.312 0 .584-.072.8-.144l-.16-.68a1.126 1.126 0 0 1-.408.088c-.376 0-.552-.224-.552-.688V11.8h1v-.728h-1V10h-.768l-.112 1.072-.608.04v.688h.56v1.872c0 .848.336 1.424 1.248 1.424zm1.57-.096h.92v-2.744c.329-.32.553-.488.897-.488.432 0 .616.24.616.888V15h.92v-2.464c0-.992-.368-1.56-1.208-1.56-.536 0-.928.28-1.256.592l.032-.76V9.352h-.92V15zm6.211.096c-1.088 0-1.936-.76-1.936-2.056 0-1.28.888-2.064 1.808-2.064 1.064 0 1.624.768 1.624 1.864 0 .176-.016.352-.04.448h-2.496c.08.696.528 1.096 1.16 1.096.336 0 .624-.104.912-.288l.312.576a2.479 2.479 0 0 1-1.344.424zm-1.048-2.432h1.744c0-.608-.264-.976-.8-.976-.464 0-.864.344-.944.976zM41.038 24.128l-.322 1.12h2.338l-.322-1.12c-.294-.966-.56-2.016-.826-3.024h-.056a59.33 59.33 0 0 1-.812 3.024zM37.972 29l2.982-9.156h1.904L45.84 29h-1.708l-.714-2.478h-3.08L39.624 29h-1.652zm8.929 2.716v-9.59h1.33l.112.728h.056c.574-.49 1.316-.896 2.072-.896 1.708 0 2.702 1.372 2.702 3.5 0 2.352-1.414 3.71-2.94 3.71-.602 0-1.204-.28-1.764-.756l.042 1.148v2.156H46.9zm2.996-3.878c.91 0 1.61-.812 1.61-2.366 0-1.372-.448-2.184-1.484-2.184-.504 0-.98.252-1.512.77v3.206c.504.42.98.574 1.386.574zm4.966 3.878v-9.59h1.33l.112.728h.056c.574-.49 1.316-.896 2.072-.896 1.708 0 2.702 1.372 2.702 3.5 0 2.352-1.414 3.71-2.94 3.71-.602 0-1.204-.28-1.764-.756l.042 1.148v2.156h-1.61zm2.996-3.878c.91 0 1.61-.812 1.61-2.366 0-1.372-.448-2.184-1.484-2.184-.504 0-.98.252-1.512.77v3.206c.504.42.98.574 1.386.574zm10.648 1.33c2.058 0 3.29-1.232 3.29-2.716 0-1.33-.77-2.016-1.848-2.478l-1.246-.518c-.756-.308-1.456-.574-1.456-1.288 0-.672.574-1.078 1.442-1.078.784 0 1.4.294 1.988.784l.826-1.036a4.042 4.042 0 0 0-2.814-1.162c-1.792 0-3.08 1.12-3.08 2.576 0 1.344.952 2.058 1.848 2.436l1.26.546c.826.35 1.414.588 1.414 1.344 0 .714-.56 1.176-1.596 1.176-.84 0-1.722-.42-2.38-1.036l-.952 1.106a4.743 4.743 0 0 0 3.304 1.344zm6.94 0a4.39 4.39 0 0 0 1.4-.252l-.28-1.19a1.97 1.97 0 0 1-.714.154c-.658 0-.966-.392-.966-1.204V23.4h1.75v-1.274h-1.75V20.25h-1.344l-.196 1.876-1.064.07V23.4h.98v3.276c0 1.484.588 2.492 2.184 2.492zm5.289 0c-1.708 0-3.262-1.316-3.262-3.598 0-2.296 1.554-3.612 3.262-3.612 1.722 0 3.276 1.316 3.276 3.612 0 2.282-1.554 3.598-3.276 3.598zm0-1.316c1.008 0 1.624-.91 1.624-2.282 0-1.386-.616-2.296-1.624-2.296s-1.61.91-1.61 2.296c0 1.372.602 2.282 1.61 2.282zM85.675 29h1.61v-4.2c.42-1.036 1.078-1.414 1.624-1.414.294 0 .476.042.714.112l.28-1.4c-.21-.098-.434-.14-.784-.14-.728 0-1.456.49-1.946 1.386h-.056l-.112-1.218h-1.33V29zm8.088.168c-1.904 0-3.388-1.33-3.388-3.598 0-2.24 1.554-3.612 3.164-3.612 1.862 0 2.842 1.344 2.842 3.262 0 .308-.028.616-.07.784h-4.368c.14 1.218.924 1.918 2.03 1.918.588 0 1.092-.182 1.596-.504l.546 1.008c-.658.434-1.484.742-2.352.742zm-1.834-4.256h3.052c0-1.064-.462-1.708-1.4-1.708-.812 0-1.512.602-1.652 1.708z" fill="#FFF"/><g fill="#FFF"><path d="M29.664 19.326c-.023-2.557 2.08-3.801 2.176-3.86-1.191-1.747-3.037-1.985-3.686-2.005-1.55-.164-3.054.934-3.844.934-.805 0-2.021-.918-3.332-.89-1.687.026-3.265 1.008-4.13 2.534-1.786 3.113-.454 7.686 1.257 10.202.856 1.232 1.856 2.607 3.165 2.559 1.281-.052 1.76-.821 3.305-.821 1.532 0 1.98.82 3.316.79 1.375-.021 2.24-1.238 3.066-2.48.99-1.412 1.386-2.804 1.402-2.875-.031-.011-2.668-1.025-2.695-4.088"/><path d="M26.957 12.244c.689-.868 1.16-2.047 1.03-3.244-.997.044-2.244.694-2.963 1.542-.635.747-1.202 1.972-1.056 3.124 1.12.084 2.27-.569 2.989-1.422"/></g></g></svg>